<svg xmlns="http://www.w3.org/2000/svg" viewBox="0 0 1380.16 172.87"><defs><style>.cls-1{fill:#fff;}.cls-2{fill:none;}</style></defs><g id="Layer_2" data-name="Layer 2"><g id="Layer_1-2" data-name="Layer 1"><path d="M324.88,67.31l-9.74-.7q-14,0-17.9,8.77v60.11H267.67V40.55h27.72l1,12.19q7.45-14,20.8-14a28.92,28.92,0,0,1,8.25,1.05Z"/><path d="M335,39.53c9.13.73,20.62,2.22,25.51,8.12s7.41,14.81,7.59,26.68v61.16H338.45V75.56q0-7.2-2.9-10.57C335,64.49,334.16,40.26,335,39.53Z"/><path d="M373.52,87.32q0-14.4,4.74-25.45a38.17,38.17,0,0,1,13.6-17.07,35.9,35.9,0,0,1,20.62-6q14.83,0,23.17,10l1.05-8.25h26.85v91.34q0,12.56-5.83,21.81a37.38,37.38,0,0,1-16.9,14.21q-11.06,5-25.62,5a53.38,53.38,0,0,1-20.22-4q-9.8-3.94-15-10.26l12.38-17.38q8.25,9.75,21.76,9.74,19.65,0,19.65-20.18v-3a27.75,27.75,0,0,1-21.49,9.39q-17.38,0-28.08-13.3T373.52,88.37Zm29.66,1.84q0,11.67,4.39,18.47a13.82,13.82,0,0,0,12.28,6.8q9.57,0,13.95-6.4V68.1q-4.29-6.49-13.77-6.49-7.9,0-12.37,7.06T403.18,89.16Z"/><path d="M501.78,50.73Q511.26,38.79,526,38.79q15.71,0,23.69,9.3t8.16,27.47v59.93H528.19V76.26q0-7.55-3.07-11.1t-10.44-3.55q-9.12,0-12.9,5.79v68.09H472.21V.71h29.57Z"/><path d="M593.77,16.94V40.55h15.62V61.08H593.77v43.44c0,3.56.64,6,1.93,7.45s3.83,2.11,7.64,2.11a42.47,42.47,0,0,0,7.37-.53V134.7A54.51,54.51,0,0,1,594,137.25q-15.25,0-22.55-7.2T564.2,108.2V16.94Z"/><polygon class="cls-1" points="433.8 68.1 456.78 88.02 433.8 108.03 433.8 68.1"/><path class="cls-2" d="M771.68,60.9q-14.83,0-16.06,22l-.09,5.36q0,13.16,4.13,19.3t12.19,6.14q15.79,0,16.15-24.3v-3Q788,60.9,771.68,60.9Z"/><path class="cls-2" d="M957,60.9q-13,0-15.44,17.2h29.84V75.82q.17-7.11-3.6-11T957,60.9Z"/><path class="cls-1" d="M681.2,60.9a12.39,12.39,0,0,1,9.65,3.95q3.6,3.95,3.6,11.32h27.73q0-17.55-10.88-27.82T681.9,38.08q-13.68,0-23.69,5.93A38.59,38.59,0,0,0,642.9,60.94q-5.31,11-5.31,25.41v1.22q0,23,11.93,36t32.65,13q17.63,0,28.82-10t11.19-25.62H694.45q.09,6.06-3.33,9.43c-2.29,2.26-5.5,3.38-9.66,3.38q-7.46,0-10.88-5.53t-3.42-19.83a105.44,105.44,0,0,1,.61-12.81Q669.71,60.9,681.2,60.9Z"/><path class="cls-1" d="M771.68,38.08q-13.95,0-24.31,6a39.59,39.59,0,0,0-15.88,17.07,50.92,50.92,0,0,0-3.78,10.4L748,89.1l-19.52,17a42.63,42.63,0,0,0,10.84,18.29q12.29,12.17,32.55,12.16,21.06,0,33.39-13t12.33-35.23V87.22q0-22.73-12.28-35.93T771.68,38.08ZM788,89.42q-.35,24.3-16.15,24.3-8.07,0-12.19-6.14t-4.13-19.3l.09-5.36q1.23-22,16.06-22Q788,60.9,788,86.43Z"/><rect class="cls-1" x="829.64" width="29.66" height="134.78"/><rect class="cls-1" x="871.56" width="29.66" height="134.78"/><path class="cls-1" d="M957.21,38.08q-14.22,0-24.57,6.1a39.53,39.53,0,0,0-15.75,17.24q-5.4,11.14-5.4,25.71v2.46q0,20.88,13.52,33.92t35.36,13a52.93,52.93,0,0,0,21.8-4.52,37.85,37.85,0,0,0,15.67-12.15l-13.52-16q-7.89,9.84-21.93,9.83-8.52,0-13.87-4.56a21.27,21.27,0,0,1-6.93-12.55h58.79V85.12q0-22.2-11.58-34.62T957.21,38.08Zm14.22,40H941.59Q944.05,60.9,957,60.9q7,0,10.8,3.9t3.6,11Z"/><path class="cls-1" d="M1052.15,60.9a12.41,12.41,0,0,1,9.66,3.95q3.6,3.95,3.59,11.32h27.73q0-17.55-10.88-27.82t-29.39-10.27q-13.69,0-23.7,5.93a38.65,38.65,0,0,0-15.31,16.93q-5.31,11-5.31,25.41v1.22q0,23,11.94,36t32.64,13q17.64,0,28.83-10t11.18-25.62H1065.4q.09,6.06-3.33,9.43t-9.65,3.38q-7.45,0-10.88-5.53t-3.43-19.83a103.08,103.08,0,0,1,.62-12.81Q1040.65,60.9,1052.15,60.9Z"/><path class="cls-1" d="M1132,111.27c-1.29-1.41-1.93-3.89-1.93-7.46V60.37h15.61V39.84H1130.1V16.23h-29.58V70.15l21.86,18.95-21.84,19q.17,14.17,7.27,21.23,7.28,7.2,22.55,7.2A54.45,54.45,0,0,0,1147,134V112.85a43.6,43.6,0,0,1-7.37.52C1135.86,113.37,1133.31,112.67,1132,111.27Z"/><path class="cls-1" d="M1372.57,47q-7.32-8.87-22.16-8.87-17.28,0-27.11,12.9l-1-11.14h-27.72v94.94h29.57v-67q4.2-6.84,12.9-6.84,7.64,0,10.53,3.38t2.89,10.57v59.93h29.66V73.62Q1379.91,55.82,1372.57,47Z"/><path class="cls-1" d="M1155.72,38.93c-.86.73,0,25,.54,25.46q2.9,3.38,2.9,10.57v59.93h29.66V73.73q-.27-17.81-7.59-26.67C1176.34,41.15,1164.85,39.66,1155.72,38.93Z"/><path class="cls-1" d="M1195.63,86.43a56.11,56.11,0,0,1,5.53-25.31A39.59,39.59,0,0,1,1217,44.05q10.37-6,24.31-6,21.33,0,33.61,13.21t12.28,35.93v1.06q0,22.2-12.33,35.23t-33.38,13q-20.28,0-32.56-12.16t-13.25-32.95Zm29.57,1.85q0,13.16,4.13,19.3t12.2,6.14q15.79,0,16.14-24.3v-3q0-25.53-16.32-25.53-14.83,0-16.06,22Z"/><path class="cls-1" d="M85.32,50.05q9.48-11.92,24.22-11.93,15.7,0,23.69,9.3t8.16,27.47v59.93H111.73V75.59q0-7.55-3.07-11.1c-2-2.37-5.53-3.56-10.44-3.56q-9.12,0-12.9,5.8v68.09H55.75V0H85.32Z"/><path class="cls-1" d="M29.57,16.27V39.88H45.19V60.41H29.57v43.43q0,5.35,1.93,7.46c1.29,1.41,3.83,2.11,7.64,2.11a43.48,43.48,0,0,0,7.37-.53V134a54.5,54.5,0,0,1-16.68,2.54q-15.25,0-22.55-7.19T0,107.53V16.27Z"/><path class="cls-1" d="M195.55,36.13q-14.2,0-24.57,6.1a39.48,39.48,0,0,0-15.75,17.24q-5.39,11.15-5.39,25.71v2.46q0,20.88,13.51,33.91t35.36,13a53,53,0,0,0,21.81-4.51q10.14-4.53,15.66-12.16l-13.51-16q-7.9,9.82-21.94,9.83-8.5,0-13.86-4.56a21.36,21.36,0,0,1-6.94-12.55h58.8V83.16q0-22.2-11.59-34.61T195.55,36.13Zm14.22,40H179.93Q182.39,59,195.38,59q7,0,10.79,3.9t3.6,11Z"/></g></g></svg>